<svg width="392" height="87" viewBox="0 0 392 87" fill="none" xmlns="http://www.w3.org/2000/svg">
<g filter="url(#filter0_di_104_340)">
<circle cx="349.793" cy="37.2074" r="16.2074" fill="url(#paint0_linear_104_340)"/>
</g>
<rect x="346.269" y="28.0466" width="7.04668" height="18.3214" rx="1.057" fill="white"/>
<rect x="358.953" y="33.6838" width="7.04668" height="18.3214" rx="1.057" transform="rotate(90 358.953 33.6838)" fill="white"/>
<path d="M127.329 74.2844V61.405H139.69V74.2844H146.692V42.3019H139.69V54.922H127.329V42.3019H120.328V74.2844H127.329ZM162.539 74.8463C168.46 74.8463 172.739 71.7777 173.517 66.9803H167.423C166.948 68.5362 165.176 69.4438 162.669 69.4438C159.73 69.4438 158.131 68.104 157.742 65.2515L173.431 65.1651V63.4795C173.431 56.4347 169.195 51.9831 162.41 51.9831C155.883 51.9831 151.345 56.694 151.345 63.4363C151.345 70.0921 156.013 74.8463 162.539 74.8463ZM162.453 57.3855C165.132 57.3855 166.818 58.855 166.818 61.1457H157.828C158.347 58.5525 159.816 57.3855 162.453 57.3855ZM183.687 74.8463C186.929 74.8463 189.781 73.42 190.473 71.4319L190.905 74.2844H196.783V61.6643C196.783 55.4839 193.239 51.9831 186.972 51.9831C180.791 51.9831 176.772 55.1813 176.772 60.0652H182.304C182.304 58.1203 183.817 57.0398 186.626 57.0398C189.003 57.0398 190.3 58.1635 190.3 60.2813V60.627L184.249 61.1024C179.063 61.4914 176.253 63.9549 176.253 67.9311C176.253 72.1667 179.106 74.8463 183.687 74.8463ZM186.021 69.9192C183.99 69.9192 183.039 69.1845 183.039 67.6286C183.039 66.2456 184.076 65.5973 186.972 65.338L190.343 65.0354V66.2024C190.343 68.6659 188.571 69.9192 186.021 69.9192ZM208.212 74.2844V41.6968H201.557V74.2844H208.212ZM221.936 74.2844V58.2067H226.042V52.6746H221.936V45.9756H215.28V52.6746H211.174V58.2067H215.28V74.2844H221.936ZM235.689 74.2844V62.4422C235.689 59.7626 237.374 58.0338 240.011 58.0338C242.301 58.0338 243.814 59.8058 243.814 62.5287V74.2844H250.47V60.9296C250.47 55.2678 247.488 51.9831 242.345 51.9831C239.535 51.9831 237.072 53.0636 235.732 54.922V41.6968H229.033V74.2844H235.689ZM253.093 84.6571C254.389 85.0461 255.902 85.2622 257.501 85.2622C261.304 85.2622 263.725 83.4038 265.54 78.9954L276.518 52.6746H269.602L264.373 66.5481L259.662 52.6746H252.531L261.218 75.0192L260.829 76.0564C259.964 78.3903 259.014 79.0818 256.766 79.0818H253.093V84.6571ZM286.866 74.2844V65.338C286.866 61.8372 286.822 59.1576 286.433 56.7805L293.176 74.2844H299.572L306.358 56.7805C306.012 59.1576 306.012 60.6702 306.012 67.5854V74.2844H312.797V42.3019H305.925L296.374 66.1591L286.866 42.3019H280.08V74.2844H286.866ZM328.665 74.8463C334.586 74.8463 338.865 71.7777 339.643 66.9803H333.549C333.073 68.5362 331.301 69.4438 328.794 69.4438C325.855 69.4438 324.256 68.104 323.867 65.2515L339.556 65.1651V63.4795C339.556 56.4347 335.321 51.9831 328.535 51.9831C322.009 51.9831 317.471 56.694 317.471 63.4363C317.471 70.0921 322.139 74.8463 328.665 74.8463ZM328.578 57.3855C331.258 57.3855 332.944 58.855 332.944 61.1457H323.954C324.472 58.5525 325.942 57.3855 328.578 57.3855Z" fill="url(#paint1_linear_104_340)"/>
<path fill-rule="evenodd" clip-rule="evenodd" d="M0 18.4102C0 16.7804 1.7114 15.7174 3.17243 16.4397L27.3079 28.3722V82.9126C27.3079 85.3803 24.6967 86.9735 22.5023 85.8448L1.19263 74.8827C0.460302 74.5061 0 73.7515 0 72.928V18.4102Z" fill="url(#paint2_linear_104_340)"/>
<path fill-rule="evenodd" clip-rule="evenodd" d="M27.2982 28.377L55.2322 74.4222L27.2982 60.322V28.377Z" fill="url(#paint3_linear_104_340)"/>
<path fill-rule="evenodd" clip-rule="evenodd" d="M54.6257 16.0267C55.2337 15.0615 56.4792 14.7219 57.4932 15.2448L83.5161 28.6666L55.2019 74.3966L36.8847 44.1885L54.6257 16.0267Z" fill="url(#paint4_linear_104_340)"/>
<path fill-rule="evenodd" clip-rule="evenodd" d="M55.2092 74.3954L83.5118 28.6584L83.684 79.9218C83.6978 84.0338 79.3563 86.7037 75.6928 84.8363L55.2092 74.3954Z" fill="url(#paint5_linear_104_340)"/>
<defs>
<filter id="filter0_di_104_340" x="307.924" y="0.740797" width="83.738" height="83.7381" filterUnits="userSpaceOnUse" color-interpolation-filters="sRGB">
<feFlood flood-opacity="0" result="BackgroundImageFix"/>
<feColorMatrix in="SourceAlpha" type="matrix" values="0 0 0 0 0 0 0 0 0 0 0 0 0 0 0 0 0 0 127 0" result="hardAlpha"/>
<feOffset dy="5.40245"/>
<feGaussianBlur stdDeviation="12.8308"/>
<feComposite in2="hardAlpha" operator="out"/>
<feColorMatrix type="matrix" values="0 0 0 0 0.0862745 0 0 0 0 0.470588 0 0 0 0 0.94902 0 0 0 0.2 0"/>
<feBlend mode="normal" in2="BackgroundImageFix" result="effect1_dropShadow_104_340"/>
<feBlend mode="normal" in="SourceGraphic" in2="effect1_dropShadow_104_340" result="shape"/>
<feColorMatrix in="SourceAlpha" type="matrix" values="0 0 0 0 0 0 0 0 0 0 0 0 0 0 0 0 0 0 127 0" result="hardAlpha"/>
<feOffset dy="5.40245"/>
<feGaussianBlur stdDeviation="2.70123"/>
<feComposite in2="hardAlpha" operator="arithmetic" k2="-1" k3="1"/>
<feColorMatrix type="matrix" values="0 0 0 0 0 0 0 0 0 0 0 0 0 0 0 0 0 0 0.12 0"/>
<feBlend mode="normal" in2="shape" result="effect2_innerShadow_104_340"/>
</filter>
<linearGradient id="paint0_linear_104_340" x1="331.062" y1="8.28834" x2="404.733" y2="16.2146" gradientUnits="userSpaceOnUse">
<stop stop-color="#3A8EF6"/>
<stop offset="1" stop-color="#6F3AFA"/>
</linearGradient>
<linearGradient id="paint1_linear_104_340" x1="99.5629" y1="5.53932" x2="538.733" y2="188.021" gradientUnits="userSpaceOnUse">
<stop stop-color="#3A8EF6"/>
<stop offset="1" stop-color="#6F3AFA"/>
</linearGradient>
<linearGradient id="paint2_linear_104_340" x1="-2.12577" y1="-11.2438" x2="60.547" y2="-8.61346" gradientUnits="userSpaceOnUse">
<stop stop-color="#3A8EF6"/>
<stop offset="1" stop-color="#6F3AFA"/>
</linearGradient>
<linearGradient id="paint3_linear_104_340" x1="34.2817" y1="23.2608" x2="84.2021" y2="66.6421" gradientUnits="userSpaceOnUse">
<stop stop-color="#3D93FF"/>
<stop offset="1" stop-color="#65A8FB"/>
</linearGradient>
<linearGradient id="paint4_linear_104_340" x1="33.2547" y1="-8.29281" x2="139.705" y2="0.698656" gradientUnits="userSpaceOnUse">
<stop stop-color="#3A8EF6"/>
<stop offset="1" stop-color="#6F3AFA"/>
</linearGradient>
<linearGradient id="paint5_linear_104_340" x1="62.3279" y1="22.3491" x2="121.245" y2="64.669" gradientUnits="userSpaceOnUse">
<stop stop-color="#65A8FB"/>
<stop offset="1" stop-color="#65A8FB"/>
</linearGradient>
</defs>
</svg>
